<svg id="logo" xmlns="http://www.w3.org/2000/svg" width="400" height="218.88888888888889" viewBox="0, 0, 400,218.88888888888889">
            <g id="svgg">
                <path id="path0" d="M48.278 32.674 C 43.811 34.620,39.137 40.295,38.329 44.755 C 36.284 56.033,38.334 175.395,40.624 178.462 C 46.121 185.822,47.066 186.079,70.078 186.456 L 91.111 186.801 91.111 178.956 L 91.111 171.111 72.222 171.111 L 53.333 171.111 53.333 140.000 L 53.333 108.889 68.333 108.889 L 83.333 108.889 83.333 101.111 L 83.333 93.333 68.333 93.333 L 53.333 93.333 53.333 70.000 L 53.333 46.667 72.222 46.667 L 91.111 46.667 91.111 38.889 L 91.111 31.111 71.389 31.155 C 57.517 31.185,50.662 31.636,48.278 32.674 M105.556 38.889 L 105.556 46.667 116.667 46.667 L 127.778 46.667 127.778 116.667 L 127.778 186.667 135.000 186.667 L 142.222 186.667 142.222 116.667 L 142.222 46.667 153.333 46.667 L 164.444 46.667 164.444 38.889 L 164.444 31.111 135.000 31.111 L 105.556 31.111 105.556 38.889 M178.889 108.889 L 178.889 186.667 186.667 186.667 L 194.444 186.667 194.444 147.778 L 194.444 108.889 206.111 108.889 L 217.778 108.889 217.778 101.111 L 217.778 93.333 206.111 93.333 L 194.444 93.333 194.444 62.222 L 194.444 31.111 186.667 31.111 L 178.889 31.111 178.889 108.889 M228.889 108.889 L 228.889 186.667 256.667 186.667 L 284.444 186.667 284.444 178.889 L 284.444 171.111 264.444 171.111 L 244.444 171.111 244.444 101.111 L 244.444 31.111 236.667 31.111 L 228.889 31.111 228.889 108.889 M310.500 32.636 C 299.665 37.476,299.839 36.131,300.229 111.864 C 300.593 182.628,300.050 177.731,308.206 183.820 C 312.888 187.316,349.334 187.316,354.017 183.820 C 362.216 177.698,361.667 183.080,361.667 108.889 C 361.667 34.701,362.216 40.084,354.021 33.958 C 350.089 31.019,316.411 29.996,310.500 32.636 M346.667 108.889 L 346.667 171.111 331.111 171.111 L 315.556 171.111 315.556 108.889 L 315.556 46.667 331.111 46.667 L 346.667 46.667 346.667 108.889 " stroke="none" fill="#dadada"></path>
            </g>
        </svg>
