<?xml version="1.0" standalone="no"?>
<!DOCTYPE svg PUBLIC "-//W3C//DTD SVG 20010904//EN"
 "http://www.w3.org/TR/2001/REC-SVG-20010904/DTD/svg10.dtd">
<svg version="1.0" xmlns="http://www.w3.org/2000/svg"
 width="1600.000000pt" height="1600.000000pt" viewBox="0 0 1600.000000 1600.000000"
 preserveAspectRatio="xMidYMid meet">
<metadata>
Created by potrace 1.14, written by Peter Selinger 2001-2017
</metadata>
<g transform="translate(0.000000,1600.000000) scale(0.100000,-0.100000)"
fill="#000000" stroke="none">
<path d="M2647 11133 c-1 -1 -94 -4 -207 -7 -113 -3 -221 -8 -240 -10 -19 -3
-61 -6 -93 -8 -32 -1 -61 -6 -63 -10 -3 -5 -9 -6 -13 -3 -5 2 -32 -2 -61 -11
-86 -25 -197 -104 -270 -191 -25 -30 -50 -60 -56 -67 -20 -22 -73 -120 -89
-166 -23 -62 -25 -75 -30 -155 -2 -38 -5 -70 -6 -70 -4 0 -9 -190 -13 -484 -3
-183 -6 -334 -8 -336 -2 -2 -1 -108 2 -235 3 -127 3 -233 1 -235 -2 -2 -2 -57
-1 -122 2 -152 2 -196 0 -208 -1 -5 -1 -14 0 -20 1 -5 4 -194 6 -420 8 -708 9
-760 17 -772 4 -6 4 -14 -1 -17 -10 -6 -7 -90 4 -107 5 -8 3 -9 -6 -4 -8 5
-11 4 -6 -3 4 -6 9 -116 11 -244 3 -128 7 -303 10 -388 3 -85 7 -236 11 -335
10 -350 15 -484 28 -740 7 -137 17 -292 20 -327 2 -18 7 -62 11 -98 11 -102
29 -132 145 -250 75 -75 191 -127 305 -136 17 -1 44 -5 60 -8 91 -16 379 -25
1395 -40 l135 -2 0 306 c0 168 -3 310 -7 315 -4 7 -266 10 -755 9 l-749 -1 0
1244 0 1243 40 1 c23 0 286 1 586 1 300 0 552 1 560 4 13 3 15 45 13 306 0
167 -1 305 -2 308 -1 3 -270 5 -598 5 l-598 0 -1 933 c0 647 3 932 10 933 6 0
346 1 756 2 l745 2 0 310 0 310 -498 0 c-274 0 -499 -1 -500 -2z"/>
<path d="M4225 11130 c-1 -3 -2 -142 -1 -310 l1 -305 438 -1 c241 -1 440 -4
443 -7 3 -3 6 -1264 5 -2801 l0 -2796 289 0 289 0 0 2796 c0 1538 2 2799 5
2802 3 3 203 5 445 5 l438 0 -1 311 -1 311 -1173 0 c-646 0 -1175 -2 -1177 -5z"/>
<path d="M7159 11120 c-4 -43 -5 -6187 -1 -6197 3 -10 74 -13 312 -13 l307 0
-1 1555 -1 1555 60 1 c33 0 243 1 468 1 l407 1 1 106 c0 58 1 197 2 308 2 172
0 202 -13 205 -8 2 -219 4 -467 3 -297 0 -453 3 -454 10 0 5 -1 566 -2 1245
l-2 1235 -307 0 c-269 0 -308 -2 -309 -15z"/>
<path d="M9159 11130 c-5 -19 -3 -6204 2 -6211 3 -5 453 -8 1110 -7 l1104 3 1
41 c1 23 4 49 7 58 4 9 3 16 -1 16 -8 0 -7 282 1 305 4 8 3 15 -1 15 -4 0 -6
40 -5 90 3 80 1 90 -15 91 -9 0 -370 1 -801 2 l-784 2 0 201 c0 110 2 205 6
211 4 5 4 13 0 17 -9 9 -9 617 0 623 4 2 4 9 1 15 -10 16 -11 619 -1 625 4 2
4 9 1 15 -10 16 -11 619 -1 625 4 2 4 9 1 15 -10 16 -11 619 -1 625 4 2 4 9 1
15 -10 16 -11 619 -1 625 4 2 4 9 1 15 -10 16 -11 619 -1 625 4 2 4 9 1 15
-10 16 -11 619 -1 625 4 2 4 9 0 15 -3 7 -7 165 -7 352 l-1 341 -307 0 c-170
0 -309 -2 -309 -5z"/>
<path d="M12917 11134 c-1 -1 -50 -4 -108 -6 -58 -3 -111 -8 -118 -12 -6 -4
-11 -2 -11 4 0 6 -4 9 -8 6 -5 -3 -31 -8 -58 -11 -80 -10 -107 -15 -149 -27
-22 -6 -42 -12 -45 -13 -37 -8 -192 -98 -225 -129 -102 -99 -155 -297 -170
-631 -2 -49 -5 -90 -5 -90 -19 0 -14 -3944 4 -3974 4 -6 2 -11 -4 -11 -6 0 -8
-4 -5 -10 11 -19 14 -50 4 -50 -6 0 -7 -5 -4 -11 4 -5 9 -86 11 -179 5 -246
15 -425 30 -530 16 -113 18 -123 27 -137 5 -7 6 -13 3 -13 -10 0 27 -84 56
-127 16 -23 61 -67 101 -96 109 -83 131 -93 227 -112 14 -3 39 -8 55 -11 45
-9 101 -15 260 -29 162 -14 564 -20 755 -10 258 13 395 29 524 61 53 13 175
83 184 106 2 4 9 8 15 8 31 0 107 104 130 175 67 207 71 370 71 2740 0 2418
-5 2598 -75 2763 -10 23 -18 45 -17 48 1 9 -86 113 -95 114 -5 0 -15 6 -22 13
-33 29 -45 37 -55 37 -5 0 -10 4 -10 9 0 11 -106 57 -150 65 -19 3 -46 8 -60
11 -100 20 -271 37 -530 51 -96 5 -529 11 -533 8z m929 -623 l20 -1 -1 -2482
c-1 -1366 -3 -2486 -3 -2489 -1 -3 -280 -6 -621 -6 l-618 0 0 2488 0 2488 21
3 c17 2 1136 1 1202 -1z"/>
</g>
</svg>
